<svg width="88" height="107" viewBox="0 0 88 107" fill="none" xmlns="http://www.w3.org/2000/svg">
  <g id="Kogan rewards">
    <path id="Vector" d="M15.1006 103.712C26.0653 101.564 38.9984 100.719 52.9126 100.528C55.2388 100.497 57.4663 99.5468 59.1138 97.9055L83.351 73.6683C84.4493 72.57 84.1099 70.6757 82.666 70.1018C82.629 70.0833 82.5858 70.071 82.5488 70.0525C77.6125 68.1211 71.9851 69.4848 68.178 73.1685L55.3252 84.9847" stroke="#E71333" stroke-width="6.5" stroke-miterlimit="10" stroke-linecap="round"/>
    <path id="Vector_2" d="M33.3833 86.916H51.3637C54.1404 86.916 56.3925 84.6638 56.3925 81.8872C56.3925 79.1105 54.1404 76.8583 51.3637 76.8583H38.4306C35.6663 76.8583 32.9698 76.1919 30.4091 75.1553C22.1038 71.7863 11.0836 77.4815 4 84.8366" stroke="#E71333" stroke-width="6.5" stroke-miterlimit="10" stroke-linecap="round"/>
    <circle id="Ellipse 845" cx="44.0001" cy="32.5105" r="28.9722" stroke="#E71333" stroke-width="6.5"/>
    <path id="$" d="M38.7751 45.4491L38.7788 45.4506C39.7756 45.8493 40.8842 46.1166 42.1009 46.2572V49.7562C42.1009 50.9669 43.0824 51.9484 44.2931 51.9484C45.5038 51.9484 46.4853 50.9669 46.4853 49.7562V46.2358C47.7594 46.067 48.8964 45.7433 49.8898 45.2567C51.4165 44.509 52.5935 43.4832 53.393 42.1719C54.1856 40.872 54.5801 39.4295 54.5801 37.8574C54.5801 35.9742 53.7797 34.2359 52.2597 32.6531C50.8696 31.177 48.9313 30.1133 46.4853 29.4344V21.0234C46.974 21.192 47.4227 21.4141 47.8333 21.6878L47.8333 21.6878L47.8387 21.6913C48.4421 22.0835 48.9431 22.5378 49.3468 23.0526C50.0435 23.941 51.2797 24.6018 52.5114 24.1584C53.6751 23.7394 54.4666 22.3714 53.7194 21.1528C53.4148 20.6561 53.0496 20.1739 52.6259 19.706C51.7397 18.6944 50.595 17.8842 49.2075 17.2676C48.3784 16.8991 47.47 16.6419 46.4853 16.4924V13.9712C46.4853 12.7605 45.5038 11.779 44.2931 11.779C43.0824 11.779 42.1009 12.7605 42.1009 13.9712V16.4667C39.9386 16.7422 38.162 17.454 36.8078 18.6381C35.0153 20.1756 34.1389 22.3009 34.1389 24.9411C34.1389 26.4071 34.4514 27.7027 35.1002 28.8057L35.1052 28.8141L35.1104 28.8223C35.7764 29.8689 36.6627 30.7372 37.7605 31.4273L37.7605 31.4273L37.7665 31.431C38.8777 32.11 40.0941 32.6175 41.4129 32.9549L41.4177 32.9561L42.1009 33.1244V41.9159C41.1703 41.7298 40.3586 41.3874 39.6575 40.8967C39.0669 40.4832 38.5839 40.0371 38.2023 39.5607C37.5177 38.706 36.3103 38.0529 35.1033 38.477C33.9387 38.8862 33.1646 40.2509 33.9039 41.4565C34.2306 41.9892 34.6232 42.5064 35.0795 43.0083L35.0795 43.0084L35.0853 43.0146C36.0348 44.0273 37.2712 44.8353 38.7751 45.4491ZM40.1861 21.7809C40.6979 21.3443 41.3318 21.0246 42.1009 20.8346V28.3777C41.1694 28.082 40.4176 27.6913 39.8315 27.216C39.2196 26.6701 38.8771 25.8545 38.8771 24.6757C38.8771 23.443 39.3137 22.4994 40.1787 21.7871L40.1788 21.7871L40.1861 21.7809ZM46.4853 41.7469V34.3794C47.2349 34.6963 47.881 35.0611 48.4274 35.4709L48.4274 35.4709L48.4332 35.4752C49.392 36.1748 49.8418 37.0453 49.8418 38.1228C49.8418 39.246 49.3451 40.1767 48.2643 40.9416C47.773 41.2853 47.1821 41.556 46.4853 41.7469Z" fill="#E71333" stroke="#E71333" stroke-width="1.11111"/>
  </g>
</svg>
