<svg width="59" height="20" viewBox="0 0 59 20" fill="none" xmlns="http://www.w3.org/2000/svg">
<g clip-path="url(#clip0_1722_2005)">
<g clip-path="url(#clip1_1722_2005)">
<path d="M57.7767 4.79643C58.2069 4.79643 58.5554 5.14499 58.5554 5.57516V14.4911C58.5554 14.9212 58.2069 15.2698 57.7767 15.2698H42.4221C41.9269 15.2698 41.5576 14.8147 41.6599 14.3306L43.5398 5.41471C43.6158 5.05509 43.934 4.79643 44.3019 4.79643H57.7767Z" fill="#E71333"/>
<path d="M49.664 13.0194C49.4344 13.0194 49.2173 12.9281 49.0569 12.7676L46.5603 10.271C46.2283 9.93906 46.2283 9.38855 46.5603 9.0566C46.8922 8.72464 47.4426 8.72464 47.7746 9.0566L49.664 10.946L53.9145 6.68445C54.2465 6.3525 54.7971 6.3525 55.1289 6.68445C55.4608 7.01642 55.4608 7.56693 55.1289 7.89887L50.2602 12.7676C50.0997 12.9281 49.8826 13.0194 49.653 13.0194H49.664Z" fill="white"/>
<path d="M6.7388 4.777H0.432932C0.193644 4.777 0 4.97065 0 5.20993V14.823C0 15.0622 0.193644 15.2559 0.432932 15.2559H2.33756C2.57685 15.2559 2.77049 15.0622 2.77049 14.823V11.3927H5.78026C6.01955 11.3927 6.21319 11.1991 6.21319 10.9598V9.2806C6.21319 9.04131 6.01955 8.84767 5.78026 8.84767H2.77049V7.32066H6.7388C6.97809 7.32066 7.17173 7.127 7.17173 6.88771V5.20855C7.17173 4.96926 6.97809 4.77562 6.7388 4.77562V4.777Z" fill="#041521"/>
<path d="M8.88962 14.823V5.20998C8.88962 4.9707 9.08328 4.77705 9.32257 4.77705H11.2272C11.4665 4.77705 11.6601 4.9707 11.6601 5.20998V14.823C11.6601 15.0623 11.4665 15.2559 11.2272 15.2559H9.32257C9.08328 15.2559 8.88962 15.0623 8.88962 14.823Z" fill="#041521"/>
<path d="M22.4475 14.6003L20.5401 11.4439C21.1182 11.1423 21.5761 10.7302 21.9081 10.2046C22.2524 9.66098 22.4239 9.03993 22.4239 8.34006C22.4239 7.64016 22.251 7.02328 21.9081 6.48384C21.5635 5.9444 21.0864 5.52115 20.4779 5.21132C19.8693 4.90149 19.1707 4.76594 18.3823 4.77701H14.4735C14.2342 4.77701 14.0406 4.97203 14.0406 5.20994V14.823C14.0406 15.0623 14.2342 15.2559 14.4735 15.2559H16.3781C16.6174 15.2559 16.811 15.0623 16.811 14.823V11.9321H17.5331C17.6894 11.9321 17.8332 12.0165 17.9093 12.1507L19.5456 15.036C19.623 15.1715 19.7654 15.2545 19.9218 15.2545H22.0768C22.4143 15.2545 22.6217 14.8866 22.4475 14.5975V14.6003ZM19.3409 8.87949C19.2302 9.03856 19.0808 9.16441 18.8913 9.25432C18.7018 9.34424 18.4819 9.3885 18.233 9.3885H16.811V7.3082H18.233C18.6119 7.3082 18.919 7.40504 19.1541 7.60005C19.3879 7.79509 19.5055 8.04129 19.5055 8.34143C19.5055 8.54061 19.4501 8.72042 19.3409 8.88087V8.87949Z" fill="#041521"/>
<path d="M27.9054 15.433C27.4448 15.4454 26.7062 15.3611 26.2637 15.2338C25.7948 15.0996 25.3687 14.9115 24.9841 14.6722C24.5997 14.433 24.2829 14.1605 24.034 13.8562C23.9054 13.6999 23.8044 13.5394 23.7284 13.3734C23.6176 13.13 23.749 12.8451 24.0063 12.7731L25.9981 12.2213C26.1792 12.1715 26.3729 12.242 26.4739 12.4011C26.5597 12.5352 26.6689 12.657 26.8031 12.7635C27.0231 12.9378 27.3065 13.0359 27.6565 13.0553C27.9359 13.065 28.182 12.9903 28.3979 12.8312C28.6122 12.6722 28.7202 12.4619 28.7202 12.2019C28.7202 12.0318 28.6579 11.8699 28.5334 11.715C28.4089 11.5601 28.2111 11.4481 27.9414 11.3789L26.3701 10.975C25.8307 10.8353 25.3701 10.6209 24.9855 10.3319C24.6011 10.0428 24.3065 9.68868 24.1032 9.26959C23.8985 8.85048 23.7961 8.38159 23.7961 7.8629C23.7961 6.83521 24.1377 6.03435 24.8209 5.46034C25.5043 4.88632 26.4656 4.60001 27.7021 4.60001C28.3605 4.60001 28.9414 4.68438 29.4462 4.85451C29.9499 5.02464 30.3842 5.29159 30.7493 5.65537C31.0078 5.9154 31.2361 6.23076 31.4325 6.60423C31.5612 6.84766 31.4352 7.14918 31.171 7.22525L29.2692 7.77577C29.081 7.8297 28.8876 7.74394 28.7823 7.57936C28.7188 7.47977 28.6357 7.38018 28.5334 7.28059C28.3287 7.08141 28.0522 6.98045 27.7021 6.98045C27.3521 6.98045 27.1005 7.05513 26.9164 7.20451C26.7312 7.3539 26.6398 7.57382 26.6398 7.8629C26.6398 8.04271 26.7145 8.19901 26.864 8.33457C27.0132 8.46873 27.2277 8.57108 27.5071 8.64162L29.0936 9.04552C29.8917 9.2447 30.5156 9.63752 30.965 10.2212C31.4146 10.8049 31.6385 11.4716 31.6385 12.2199C31.6385 12.9087 31.481 13.4924 31.1669 13.971C30.853 14.4496 30.4007 14.8147 29.8114 15.0637C29.272 15.2919 28.6357 15.4164 27.904 15.4358L27.9054 15.433Z" fill="#041521"/>
<path d="M41.1604 4.77705H33.3428C33.1033 4.77705 32.9099 4.9707 32.9099 5.20998V6.88916C32.9099 7.12845 33.1033 7.32209 33.3428 7.32209H35.874V14.823C35.874 15.0623 36.0674 15.2559 36.3069 15.2559H38.2115C38.4507 15.2559 38.6444 15.0623 38.6444 14.823V7.32209H40.8257C41.065 7.32209 41.2115 7.12845 41.2587 6.88916C41.2587 6.88916 41.5117 5.6277 41.5947 5.20998C41.6417 4.97623 41.4011 4.77705 41.1618 4.77705H41.1604Z" fill="#041521"/>
</g>
</g>
<defs>
<clipPath id="clip0_1722_2005">
<rect width="59" height="20" fill="white"/>
</clipPath>
<clipPath id="clip1_1722_2005">
<rect width="58.7321" height="11" fill="white" transform="translate(0 4.60001)"/>
</clipPath>
</defs>
</svg>
