<svg width="104" height="100" viewBox="0 0 104 100" fill="none" xmlns="http://www.w3.org/2000/svg">
	<g id="Exclusive price">
		<g id="Group 5170633">
			<g id="Group 5169873">
				<path id="Vector 24" d="M20.0066 48.9621L3.96667 76.744C2.97306 78.465 4.57842 80.5209 6.48894 79.9741L24.6558 74.7748C25.8575 74.4308 27.1052 75.1511 27.4082 76.3639L31.9889 94.6965C32.4706 96.6244 35.0537 96.9868 36.0473 95.2658L49.4506 72.0507" stroke="#E71333" stroke-width="6.5" stroke-linecap="round"/>
			</g>
			<g id="Group 5169874">
				<path id="Vector 24_2" d="M53.8478 70.8355L67.9527 95.2658C68.9463 96.9868 71.5294 96.6244 72.0111 94.6965L76.5918 76.3639C76.8948 75.1512 78.1425 74.4308 79.3443 74.7748L97.5111 79.9741C99.4216 80.5209 101.027 78.465 100.033 76.744L83.8665 48.7422" stroke="#E71333" stroke-width="6.5" stroke-linecap="round"/>
			</g>
			<circle id="Ellipse 813" cx="52.02" cy="37.2553" r="33.2553" stroke="#E71333" stroke-width="6.5"/>
		</g>
		<path id="$" d="M45.7902 51.476L45.7934 51.4773C46.8994 51.9197 48.1342 52.2135 49.4944 52.3632V56.2862C49.4944 57.5509 50.5197 58.5761 51.7844 58.5761C53.0491 58.5761 54.0743 57.5509 54.0743 56.2862V52.3414C55.4962 52.1617 56.7595 51.8066 57.8579 51.2686C59.5118 50.4585 60.7824 49.3497 61.6448 47.9354C62.5009 46.5313 62.9273 44.9732 62.9273 43.2728C62.9273 41.2466 62.067 39.3709 60.4192 37.6551C58.9009 36.0428 56.7734 34.8805 54.0743 34.1428V24.7127C54.6723 24.9049 55.2188 25.1677 55.7158 25.499L55.7158 25.499L55.7207 25.5022C56.3898 25.9371 56.9467 26.4417 57.3961 27.0148C58.1409 27.9645 59.4479 28.653 60.736 28.1893C61.9627 27.7477 62.774 26.319 62.0018 25.0598C61.6724 24.5225 61.2769 24.0002 60.8173 23.4927C59.8599 22.3995 58.6211 21.5219 57.1154 20.8527C56.1928 20.4426 55.1782 20.1594 54.0743 19.9993V17.1491C54.0743 15.8844 53.0491 14.8592 51.7844 14.8592C50.5197 14.8592 49.4944 15.8844 49.4944 17.1491V19.9734C47.1024 20.2639 45.1489 21.0398 43.6683 22.3346C41.7352 23.9925 40.7865 26.285 40.7865 29.1467C40.7865 30.7345 41.1249 32.1318 41.8231 33.3187L41.8275 33.3262L41.8322 33.3336C42.5516 34.464 43.5092 35.4026 44.6971 36.1493L44.6971 36.1493L44.7025 36.1526C45.9082 36.8894 47.2285 37.4403 48.6611 37.8068L48.6654 37.8079L49.4944 38.0121V47.8417C48.4098 47.6419 47.4654 47.2537 46.6529 46.6849C45.9997 46.2277 45.4636 45.733 45.039 45.2029C44.3069 44.2889 43.0307 43.6087 41.7694 44.0519C40.5434 44.4827 39.7498 45.907 40.5137 47.1527C40.8672 47.7291 41.2924 48.2893 41.7874 48.8338L41.7873 48.8338L41.7926 48.8394C42.8184 49.9337 44.1567 50.8093 45.7902 51.476ZM47.2227 25.6085C47.8268 25.0933 48.5794 24.7258 49.4944 24.5196V33.0511C48.3999 32.7196 47.5183 32.2711 46.8351 31.7165C46.1359 31.0939 45.7535 30.1687 45.7535 28.8564C45.7535 27.4785 46.2435 26.4151 47.2161 25.6141L47.2162 25.6141L47.2227 25.6085ZM54.0743 47.6665V39.3078C54.9648 39.6714 55.7288 40.0954 56.3704 40.5766L56.3704 40.5766L56.3757 40.5805C57.4499 41.3644 57.9604 42.3477 57.9604 43.563C57.9604 44.8309 57.3962 45.8798 56.1894 46.7338C55.6086 47.1403 54.9058 47.4535 54.0743 47.6665Z" fill="#E71333" stroke="#E71333"/>
	</g>
</svg>
